<svg width="204" height="157" viewBox="0 0 204 157" xmlns="http://www.w3.org/2000/svg">
  <g fill="none" fill-rule="evenodd">
    <path d="M23.2094722 146.9248047l3.0986328-16.9404297h6.4570312L27.0317378 157h-6.7539062l-3.6181641-15.4003906L13.1157222 157H6.38037062L.62841749 129.984375h6.47558594l3.09863277 16.9404297 3.7109375-16.9404297h5.5292969l3.7666016 16.9404297zm38.4445314 5.0283203h-8.9248047L51.1706052 157h-6.9580078l9.9082031-27.015625h6.1230469L70.2262692 157h-6.9951171l-1.5771485-5.046875zm-7.3662109-5.0283203h5.8076172l-2.913086-9.3701172-2.8945312 9.3701172zm36.2179689 5.0654297h11.3369144V157H83.9930663v-27.015625h6.5126953v22.0058594zm32.3957034 0h11.336914V157H116.38877v-27.015625h6.512695v22.0058594zm42.637891-6.4384766h-10.242188v6.4384766h12.097657V157h-18.610352v-27.015625h18.647461v5.02832031h-12.134766v5.69628909h10.242188v4.8427734zm37.516797-10.53906249h-8.108399V157h-6.512695v-21.98730469h-7.959961V129.984375h22.581055v5.02832031z" fill="#4B4B4B"/>
    <path fill="#57B6FF" d="M135 0h40l-53 106-20-40z"/>
    <path fill="#3692D8" d="M82 106L29 0h40l33 66z"/>
  </g>
</svg>
